<?xml version="1.0" encoding="iso-8859-1"?>
<!-- Uploaded to: SVG Repo, www.svgrepo.com, Generator: SVG Repo Mixer Tools -->
<!DOCTYPE svg PUBLIC "-//W3C//DTD SVG 1.1//EN" "http://www.w3.org/Graphics/SVG/1.1/DTD/svg11.dtd">
<svg fill="#000000" height="800px" width="800px" version="1.1" id="Capa_1" xmlns="http://www.w3.org/2000/svg" xmlns:xlink="http://www.w3.org/1999/xlink" 
	 viewBox="0 0 493.246 493.246" xml:space="preserve">
<path id="XMLID_747_" d="M466.33,155.291c-11.969-12.967-26.9-22.486-43.363-27.834c-6.442-47.746-47.455-84.664-96.94-84.664
	c-4.186,0-8.375,0.258-12.497,0.805C289.237,16.873,254.7,1.344,218.104,1.344c-32.698,0-63.868,12.259-87.788,34.537
	c-18.461,17.187-31.283,39.062-37.276,63.097C40.141,109.06,0,155.677,0,211.492c0,63.162,51.386,114.545,114.529,114.545h10.421
	c-1.835,12,0,24.469,5.848,35.68c8.15,15.592,22.648,26.498,39.578,30.074v41.801c0,16.607,6.894,31.361,18.122,42.059
	c10.469,10.004,24.582,16.252,40.173,16.252c28.125,0-1.288,0,35.889,0c15.593,0,29.705-6.248,40.174-16.252
	c12.212-11.664,18.123-26.965,18.123-42.059v-41.801c16.928-3.576,31.425-14.482,39.577-30.074
	c5.847-11.211,7.683-23.68,5.847-35.68h23.179c56.121,0,101.787-45.666,101.787-101.803
	C493.246,198.621,483.695,174.136,466.33,155.291z M321.534,340.373c-2.109,4.027-6.249,6.539-10.776,6.539h-0.032h-33.987v86.68
	c0,6.717-5.479,12.178-12.179,12.178h-35.889c-6.701,0-12.178-5.461-12.178-12.178v-86.68h-33.986h-0.034
	c-4.526,0-8.667-2.512-10.793-6.539c-2.093-4.027-1.788-8.859,0.838-12.596l64.109-91.914c2.272-3.254,6.026-5.201,9.989-5.201
	c3.962,0,7.716,1.947,9.986,5.201l64.11,91.914C323.339,331.513,323.645,336.345,321.534,340.373z"/>
</svg>